<?xml version="1.0" encoding="utf-8"?>
<!-- Generated by IcoMoon.io -->
<!DOCTYPE svg PUBLIC "-//W3C//DTD SVG 1.1//EN" "http://www.w3.org/Graphics/SVG/1.1/DTD/svg11.dtd">
<svg version="1.1" xmlns="http://www.w3.org/2000/svg" xmlns:xlink="http://www.w3.org/1999/xlink" width="512" height="512" viewBox="0 0 512 512">
<g>
</g>
	<path d="M181.166 408.269h149.637v34.704h-149.637v-34.704z" fill="#000000" />
	<path d="M192.512 454.615h126.997v44.82h-126.996v-44.82z" fill="#000000" />
	<path d="M261.652 38.809v135.721c19.733 2.765 34.949 19.538 34.949 40.018 0 22.416-18.166 40.602-40.601 40.602-22.416 0-40.601-18.176-40.601-40.601 0-20.48 15.216-37.263 34.959-40.018v-134.799l-96.88 185.579c0 0 52.603 123.382 42.67 170.363 5.007 0.86 118.282 0.379 122.46-0.297-12.82-35.963 39.906-172.503 39.906-172.503l-96.86-184.064z" fill="#000000" />
	<path d="M271.831 28.386c0 8.743-7.088 15.831-15.831 15.831s-15.831-7.088-15.831-15.831c0-8.743 7.088-15.831 15.831-15.831 8.743 0 15.831 7.088 15.831 15.831z" fill="#000000" />
</svg>
